<?xml version="1.0" standalone="no"?><svg xmlns="http://www.w3.org/2000/svg" viewBox="0 0 1440 320"><path fill="#413685" fill-opacity="0.1" d="M0,64L20,80C40,96,80,128,120,122.7C160,117,200,75,240,64C280,53,320,75,360,80C400,85,440,75,480,69.3C520,64,560,64,600,58.7C640,53,680,43,720,37.3C760,32,800,32,840,69.3C880,107,920,181,960,213.3C1000,245,1040,235,1080,213.3C1120,192,1160,160,1200,149.3C1240,139,1280,149,1320,170.7C1360,192,1400,224,1420,240L1440,256L1440,320L1420,320C1400,320,1360,320,1320,320C1280,320,1240,320,1200,320C1160,320,1120,320,1080,320C1040,320,1000,320,960,320C920,320,880,320,840,320C800,320,760,320,720,320C680,320,640,320,600,320C560,320,520,320,480,320C440,320,400,320,360,320C320,320,280,320,240,320C200,320,160,320,120,320C80,320,40,320,20,320L0,320Z"></path></svg>